Coordinates
version=1
nRows=18
nColumns=19
inDegrees=yes

Units are S.I. units (second, meters, Newtons, ...)
If the header above contains a line with 'inDegrees', this indicates whether rotational values are in degrees (yes) or radians (no).

endheader
time	pelvis_tilt	pelvis_list	pelvis_rotation	pelvis_tx	pelvis_ty	pelvis_tz	hip_flexion_r	hip_adduction_r	hip_rotation_r	knee_angle_r	knee_angle_r_beta	ankle_angle_r	hip_flexion_l	hip_adduction_l	hip_rotation_l	knee_angle_l	knee_angle_l_beta	ankle_angle_l
     17.35333333	     -2.48681479	      6.91335702	      3.72781652	      2.26595780	      1.05420444	      1.02535891	     -8.62809807	    -11.59922722	     -5.63891724	     66.55290082	      1.16156725	    -31.09436691	     16.56805879	      9.82216747	     -2.45549541	     15.44905613	      0.26963690	      7.97040176
     17.36000000	     -2.92235005	      6.84977440	      4.13017465	      2.26433287	      1.04751986	      1.02499194	     -6.88039738	    -11.52880125	     -4.88726588	     69.94406792	      1.22075428	    -31.06855932	     18.14893383	      9.77694214	     -2.71481180	     19.04022601	      0.33231463	      8.34912372
     17.36666667	     -2.64670908	      6.97870981	      4.45032020	      2.26280550	      1.04132824	      1.02474350	     -5.97137569	    -11.70854049	     -4.36076949	     73.13631499	      1.27646950	    -30.87967177	     18.87584145	      9.88482536	     -2.94948965	     22.57390831	      0.39398903	      8.92729873
     17.37333333	     -1.83773136	      7.31185917	      4.73655333	      2.26131361	      1.03554725	      1.02456320	     -5.69929930	    -12.13268517	     -4.02108441	     76.15066993	      1.32907992	    -30.44168124	     18.91759258	     10.18019841	     -3.08632885	     25.99226503	      0.45365060	      9.74415326
     17.38000000	     -2.00586573	      7.23133111	      5.03444197	      2.25941193	      1.02863231	      1.02440696	     -4.11005005	    -12.15604286	     -3.42499227	     79.31338535	      1.38427972	    -29.84770694	     20.15164573	     10.09816773	     -3.15109868	     29.65491806	      0.51757596	     10.85621223
     17.38666667	     -1.62737055	      7.36146530	      5.28184424	      2.25760891	      1.02238438	      1.02430819	     -3.16907740	    -12.41331921	     -2.96117825	     82.25383712	      1.43560028	    -29.05647453	     20.58980750	     10.23576253	     -3.07154268	     32.99088241	      0.57579952	     12.18497031
     17.39333333	     -1.24517646	      7.47248102	      5.51060205	      2.25571308	      1.01635169	      1.02422220	     -2.17562655	    -12.65720167	     -2.48216291	     85.07381602	      1.48481820	    -28.07905164	     20.89122803	     10.38475065	     -2.87342457	     36.09916272	      0.63004925	     13.70210398
     17.40000000	     -0.37843528	      7.76777129	      5.70286601	      2.25394231	      1.01120989	      1.02412266	     -1.75767542	    -13.09463828	     -2.10399786	     87.63329584	      1.52948955	    -26.99077232	     20.40494493	     10.72397629	     -2.57641748	     38.77271108	      0.67671147	     15.37587330
     17.40666667	     -0.43096662	      7.65078124	      5.92972766	      2.25189496	      1.00545191	      1.02395016	     -0.10866525	    -13.11064427	     -1.52235604	     90.22798161	      1.57477536	    -25.68093545	     20.87633375	     10.74024706	     -2.14585773	     41.34256989	      0.72156397	     17.05405153
     17.41333333	      0.28886477	      7.81011972	      6.09967048	      2.25012832	      1.00114308	      1.02377933	      0.58693712	    -13.39402177	     -1.09362354	     92.45246375	      1.61359989	    -24.29558086	     20.15126324	     11.00034461	     -1.66321156	     43.32562085	      0.75617473	     18.78385422
     17.42000000	      0.79724320	      7.85001244	      6.27587045	      2.24835876	      0.99722430	      1.02352996	      1.58811687	    -13.55642057	     -0.64527893	     94.50461264	      1.64941665	    -22.79455472	     19.44850674	     11.14960988	     -1.16005962	     44.94612967	      0.78445795	     20.43528798
     17.42666667	      1.08813908	      7.77517795	      6.42016405	      2.24673301	      0.99379707	      1.02323262	      2.88854054	    -13.61828692	     -0.17812361	     96.35654284	      1.68173893	    -21.16467901	     18.76629610	     11.17604883	     -0.67045624	     46.18765892	      0.80612672	     21.94267911
     17.43333333	      1.09184829	      7.60155853	      6.51305200	      2.24520672	      0.99072436	      1.02293332	      4.58733979	    -13.57382816	      0.36663348	     98.01124623	      1.71061895	    -19.66567291	     18.22670072	     11.07696558	     -0.28561715	     47.12814489	      0.82254130	     23.29054628
     17.44000000	      1.51999741	      7.49286107	      6.65275120	      2.24381189	      0.98897609	      1.02246920	      5.74510120	    -13.57619247	      0.70831142	     99.29618216	      1.73304531	    -18.34074592	     16.95353179	     11.05681980	      0.32167075	     47.60819480	      0.83091975	     24.38837368
     17.44666667	      1.73882917	      7.29980642	      6.73120869	      2.24310947	      0.98778117	      1.02202765	      7.05229309	    -13.53649103	      0.97867232	    100.29122530	      1.75041209	    -16.33808884	     15.65416003	     10.82722457	      0.62635711	     47.66914694	      0.83198357	     25.57050719
     17.45333333	      1.94573384	      7.09157735	      6.66910585	      2.24243360	      0.98735328	      1.02172406	      8.43041355	    -13.44772980	      1.32813129	    101.03124347	      1.76332785	    -14.58587304	     14.24837056	     10.52230883	      0.79904636	     47.46725896	      0.82845996	     26.32048166
     17.46000000	      1.98940391	      6.79299813	      6.71713721	      2.24212993	      0.98779824	      1.02120431	      9.90567295	    -13.28420097	      1.46310894	    101.40907293	      1.76992221	    -13.14817832	     12.80127949	     10.20710284	      1.23432672	     46.87407768	      0.81810699	     26.83173004
     17.46666667	      2.08288761	      6.50035850	      6.62610576	      2.24199360	      0.98878018	      1.02080447	     11.29617019	    -13.12863010	      1.59047813	    101.54580936	      1.77230871	    -11.41706957	     11.24285556	      9.78236117	      1.36118828	     46.15341245	      0.80552901	     27.21038712
